# xmcd CD database file
#
# Track frame offsets:
#	150
#	24005
#	39954
#	65491
#	84349
#	104193
#	132758
#	154947
#	165166
#	179174
#	189908
#	212552
#
# Disc length: 3006 seconds
#
# Revision: 2
# Processed by: cddbd v1.5.2PL0 Copyright (c) Steve Scherf et al.
# Submitted via: CDex 1.51
#
DISCID=940bbc0c
DTITLE=James Brown - Too Funky
DYEAR=1900
DGENRE=Funk
TTITLE0=Sex Machine
TTITLE1=Night Train
TTITLE2=It`s Too Funky Here
TTITLE3=I Got The Feeling
TTITLE4=Get On The Good Foot
TTITLE5=It`s A New Day
TTITLE6=Talking Loud And Saying Nothing
TTITLE7=Good Good Lovin
TTITLE8=Lost Someone
TTITLE9=Out Of Sight
TTITLE10=Super Bad
TTITLE11=Cold Sweat
EXTD=
EXTT0=
EXTT1=
EXTT2=
EXTT3=
EXTT4=
EXTT5=
EXTT6=
EXTT7=
EXTT8=
EXTT9=
EXTT10=
EXTT11=
PLAYORDER=
